<svg width="128" height="128" viewBox="0 0 128 128" xmlns="http://www.w3.org/2000/svg">
  <defs>
    <linearGradient id="grad1" x1="0%" y1="0%" x2="100%" y2="100%">
      <stop offset="0%" style="stop-color:#6200ea;stop-opacity:1" />
      <stop offset="100%" style="stop-color:#7c4dff;stop-opacity:1" />
    </linearGradient>
  </defs>
  
  <!-- 背景圆形 -->
  <circle cx="64" cy="64" r="60" fill="url(#grad1)" stroke="#4a148c" stroke-width="2"/>
  
  <!-- 翻译图标 -->
  <g fill="white">
    <!-- 文档图标 -->
    <rect x="32" y="28" width="64" height="72" rx="4" fill="white" opacity="0.9"/>
    <rect x="36" y="32" width="56" height="4" rx="2" fill="#6200ea"/>
    <rect x="36" y="40" width="48" height="4" rx="2" fill="#6200ea"/>
    <rect x="36" y="48" width="52" height="4" rx="2" fill="#6200ea"/>
    <rect x="36" y="56" width="44" height="4" rx="2" fill="#6200ea"/>
    <rect x="36" y="64" width="50" height="4" rx="2" fill="#6200ea"/>
    <rect x="36" y="72" width="46" height="4" rx="2" fill="#6200ea"/>
    <rect x="36" y="80" width="40" height="4" rx="2" fill="#6200ea"/>
    <rect x="36" y="88" width="42" height="4" rx="2" fill="#6200ea"/>
    
    <!-- 翻译箭头 -->
    <path d="M 85 45 L 95 55 L 85 65 M 95 55 L 75 55" stroke="#6200ea" stroke-width="3" fill="none" stroke-linecap="round" stroke-linejoin="round"/>
    <path d="M 43 75 L 33 85 L 43 95 M 33 85 L 53 85" stroke="#6200ea" stroke-width="3" fill="none" stroke-linecap="round" stroke-linejoin="round"/>
  </g>
  
  <!-- 选中指示器 -->
  <circle cx="64" cy="64" r="8" fill="#ff6b35" opacity="0.8"/>
  <circle cx="64" cy="64" r="4" fill="white"/>
</svg> 